<svg xmlns="http://www.w3.org/2000/svg" xmlns:svg="http://www.w3.org/2000/svg" id="svg122" width="1791.685" height="661.076" preserveAspectRatio="xMidYMid meet" version="1.0" viewBox="0 0 1343.764 495.807"><metadata id="metadata128"/><defs id="defs126"><marker style="overflow:visible" id="TriangleInM" orient="auto" refX="0" refY="0"><path style="fill:#ececec;fill-opacity:1;fill-rule:evenodd;stroke:#ececec;stroke-width:1pt;stroke-opacity:1" id="path1821" d="M 5.77,0 -2.88,5 V -5 Z" transform="scale(-0.4)"/></marker><marker id="marker3349" orient="auto" refX="0" refY="0" style="overflow:visible"><path id="path3347" d="M 5.77,0 -2.88,5 V -5 Z" transform="scale(-0.8)" style="fill:#ececec;fill-opacity:1;fill-rule:evenodd;stroke:#ececec;stroke-width:1pt;stroke-opacity:1"/></marker><marker style="overflow:visible" id="marker3279" orient="auto" refX="0" refY="0"><path style="fill:#ececec;fill-opacity:1;fill-rule:evenodd;stroke:#ececec;stroke-width:.625;stroke-linejoin:round;stroke-opacity:1" id="path3277" d="M 8.7185878,4.0337352 -2.2072895,0.01601326 8.7185884,-4.0017078 c -1.7454984,2.3720609 -1.7354408,5.6174519 -6e-7,8.035443 z" transform="matrix(1.1,0,0,1.1,1.1,0)"/></marker><marker style="overflow:visible" id="Arrow1Mstart" orient="auto" refX="0" refY="0"><path style="fill:#ececec;fill-opacity:1;fill-rule:evenodd;stroke:#ececec;stroke-width:1pt;stroke-opacity:1" id="path1691" d="M 0,0 5,-5 -12.5,0 5,5 Z" transform="matrix(0.4,0,0,0.4,4,0)"/></marker><marker style="overflow:visible" id="marker3185" orient="auto" refX="0" refY="0"><path style="fill:#ececec;fill-opacity:1;fill-rule:evenodd;stroke:#ececec;stroke-width:1pt;stroke-opacity:1" id="path3183" d="M 0,0 5,-5 -12.5,0 5,5 Z" transform="matrix(0.2,0,0,0.2,1.2,0)"/></marker><marker style="overflow:visible" id="marker2999" orient="auto" refX="0" refY="0"><path style="fill:#ececec;fill-opacity:1;fill-rule:evenodd;stroke:#ececec;stroke-width:.625;stroke-linejoin:round;stroke-opacity:1" id="path2997" d="M 8.7185878,4.0337352 -2.2072895,0.01601326 8.7185884,-4.0017078 c -1.7454984,2.3720609 -1.7354408,5.6174519 -6e-7,8.035443 z" transform="scale(0.6)"/></marker><marker style="overflow:visible" id="Arrow2Lstart" orient="auto" refX="0" refY="0"><path style="fill:red;fill-opacity:1;fill-rule:evenodd;stroke:red;stroke-width:.625;stroke-linejoin:round;stroke-opacity:1" id="path1703" d="M 8.7185878,4.0337352 -2.2072895,0.01601326 8.7185884,-4.0017078 c -1.7454984,2.3720609 -1.7354408,5.6174519 -6e-7,8.035443 z" transform="matrix(1.1,0,0,1.1,1.1,0)"/></marker><marker style="overflow:visible" id="Arrow1Sstart" orient="auto" refX="0" refY="0"><path style="fill:red;fill-opacity:1;fill-rule:evenodd;stroke:red;stroke-width:1pt;stroke-opacity:1" id="path1697" d="M 0,0 5,-5 -12.5,0 5,5 Z" transform="matrix(0.2,0,0,0.2,1.2,0)"/></marker><marker style="overflow:visible" id="Arrow2Mstart" orient="auto" refX="0" refY="0"><path style="fill:#ececec;fill-opacity:1;fill-rule:evenodd;stroke:#ececec;stroke-width:.625;stroke-linejoin:round;stroke-opacity:1" id="path1709" d="M 8.7185878,4.0337352 -2.2072895,0.01601326 8.7185884,-4.0017078 c -1.7454984,2.3720609 -1.7354408,5.6174519 -6e-7,8.035443 z" transform="scale(0.6)"/></marker><marker id="marker2273" orient="auto" refX="0" refY="0" style="overflow:visible"><path id="path2271" d="M 5.77,0 -2.88,5 V -5 Z" transform="scale(-0.8)" style="fill:red;fill-opacity:1;fill-rule:evenodd;stroke:red;stroke-width:1pt;stroke-opacity:1"/></marker><marker style="overflow:visible" id="Arrow1Lstart" orient="auto" refX="0" refY="0"><path style="fill:red;fill-opacity:1;fill-rule:evenodd;stroke:red;stroke-width:1pt;stroke-opacity:1" id="path1685" d="M 0,0 5,-5 -12.5,0 5,5 Z" transform="matrix(0.8,0,0,0.8,10,0)"/></marker><rect id="rect565" width="373.5" height="123" x="-588" y="-148.5"/></defs><g id="g664"><g id="g273" transform="translate(416.03032,2.9336634)"><rect style="fill:#3f51b5;fill-opacity:1;fill-rule:evenodd;stroke-width:.92328" id="rect261" width="20.981" height="72.394" x="-329.532" y="3.765" ry="11.038" transform="rotate(-90)"/><rect id="rect263" width="20.981" height="72.394" x="-280.149" y="3.81" ry="11.038" transform="rotate(-90)" style="fill:#3f51b5;fill-opacity:1;fill-rule:evenodd;stroke-width:.92328"/><rect id="rect265" width="20.981" height="72.394" x="-230.765" y="3.825" ry="11.038" transform="rotate(-90)" style="fill:#3f51b5;fill-opacity:1;fill-rule:evenodd;stroke-width:.92328"/><rect id="rect267" width="20.981" height="72.394" x="-181.382" y="3.795" ry="11.038" transform="rotate(-90)" style="fill:#3f51b5;fill-opacity:1;fill-rule:evenodd;stroke-width:.92328"/><rect id="rect269" width="20.981" height="72.394" x="-378.915" y="3.75" ry="11.038" transform="rotate(-90)" style="fill:#3f51b5;fill-opacity:1;fill-rule:evenodd;stroke-width:.92328"/><rect id="rect271" width="20.981" height="72.394" x="-131.999" y="3.78" ry="11.038" transform="rotate(-90)" style="fill:#3f51b5;fill-opacity:1;fill-rule:evenodd;stroke-width:.92328"/></g><g id="g251" transform="translate(0,415.5)"><rect id="rect239" width="20.981" height="72.394" x="163.547" y="3.765" ry="11.038" style="fill:#3f51b5;fill-opacity:1;fill-rule:evenodd;stroke-width:.92328"/><rect style="fill:#3f51b5;fill-opacity:1;fill-rule:evenodd;stroke-width:.92328" id="rect241" width="20.981" height="72.394" x="212.93" y="3.797" ry="11.038"/><rect style="fill:#3f51b5;fill-opacity:1;fill-rule:evenodd;stroke-width:.92328" id="rect243" width="20.981" height="72.394" x="262.313" y="3.825" ry="11.038"/><rect style="fill:#3f51b5;fill-opacity:1;fill-rule:evenodd;stroke-width:.92328" id="rect245" width="20.981" height="72.394" x="311.696" y="3.774" ry="11.038"/><rect style="fill:#3f51b5;fill-opacity:1;fill-rule:evenodd;stroke-width:.92328" id="rect247" width="20.981" height="72.394" x="361.08" y="3.773" ry="11.038"/><rect style="fill:#3f51b5;fill-opacity:1;fill-rule:evenodd;stroke-width:.92328" id="rect249" width="20.981" height="72.394" x="114.164" y="3.75" ry="11.038"/></g><g id="g223"><rect style="fill:#3f51b5;fill-opacity:1;fill-rule:evenodd;stroke-width:.92328" id="rect144-07-1" width="20.981" height="72.394" x="163.547" y="3.765" ry="11.038"/><rect id="rect144-07-1-8" width="20.981" height="72.394" x="212.93" y="3.797" ry="11.038" style="fill:#3f51b5;fill-opacity:1;fill-rule:evenodd;stroke-width:.92328"/><rect id="rect144-07-1-7" width="20.981" height="72.394" x="262.313" y="3.825" ry="11.038" style="fill:#3f51b5;fill-opacity:1;fill-rule:evenodd;stroke-width:.92328"/><rect id="rect144-07-1-9" width="20.981" height="72.394" x="311.696" y="3.774" ry="11.038" style="fill:#3f51b5;fill-opacity:1;fill-rule:evenodd;stroke-width:.92328"/><rect id="rect144-07-1-2" width="20.981" height="72.394" x="361.08" y="3.773" ry="11.038" style="fill:#3f51b5;fill-opacity:1;fill-rule:evenodd;stroke-width:.92328"/><rect id="rect144-07-1-5" width="20.981" height="72.394" x="114.164" y="3.75" ry="11.038" style="fill:#3f51b5;fill-opacity:1;fill-rule:evenodd;stroke-width:.92328"/></g><g id="g259" transform="translate(0,2.9336634)"><rect id="rect144-07-1-93" width="20.981" height="72.394" x="-329.532" y="3.765" ry="11.038" transform="rotate(-90)" style="fill:#3f51b5;fill-opacity:1;fill-rule:evenodd;stroke-width:.92328"/><rect style="fill:#3f51b5;fill-opacity:1;fill-rule:evenodd;stroke-width:.92328" id="rect144-07-1-8-7" width="20.981" height="72.394" x="-280.149" y="3.81" ry="11.038" transform="rotate(-90)"/><rect style="fill:#3f51b5;fill-opacity:1;fill-rule:evenodd;stroke-width:.92328" id="rect144-07-1-7-3" width="20.981" height="72.394" x="-230.765" y="3.825" ry="11.038" transform="rotate(-90)"/><rect style="fill:#3f51b5;fill-opacity:1;fill-rule:evenodd;stroke-width:.92328" id="rect144-07-1-9-0" width="20.981" height="72.394" x="-181.382" y="3.795" ry="11.038" transform="rotate(-90)"/><rect style="fill:#3f51b5;fill-opacity:1;fill-rule:evenodd;stroke-width:.92328" id="rect144-07-1-5-1" width="20.981" height="72.394" x="-378.915" y="3.75" ry="11.038" transform="rotate(-90)"/><rect style="fill:#3f51b5;fill-opacity:1;fill-rule:evenodd;stroke-width:.92328" id="rect144-07-1-2-4" width="20.981" height="72.394" x="-131.999" y="3.78" ry="11.038" transform="rotate(-90)"/></g><g id="g595"><rect id="rect108" width="367.5" height="367.5" x="64.353" y="64.15" ry="50.743" style="fill:#3f51b5;fill-opacity:1;stroke-width:.786126"/><g id="g228" transform="translate(-8.3408601,-41.498588)"><g id="g4226"><ellipse id="path521" cx="369.153" cy="173.733" rx="33.563" ry="33.75" style="fill:#ececec;stroke-width:.731655"/><g style="fill:#3f51b5;fill-opacity:1" id="g524" transform="translate(673.74534,-47.17933)"><ellipse style="fill:#3f51b5;fill-opacity:1;stroke-width:.468805" id="path519" cx="-304.592" cy="220.913" rx="11.988" ry="11.458"/></g></g><text style="font-size:30px;line-height:1.25;font-family:'Cascadia Code PL';-inkscape-font-specification:'Cascadia Code PL';fill:#e6e6e6;stroke-width:.75" id="text571" x="196.745" y="351.821" xml:space="preserve"><tspan id="tspan569" x="196.745" y="351.821" style="fill:#e6e6e6;stroke-width:.75">0101110</tspan><tspan style="fill:#e6e6e6;stroke-width:.75" id="tspan573" x="196.745" y="389.321">0111010</tspan><tspan style="fill:#e6e6e6;stroke-width:.75" id="tspan575" x="196.745" y="426.821">0101110</tspan></text><g id="g115"><g id="g741" transform="matrix(1.2195727,0,0,1,534.27119,-234.67933)" style="fill:#e6e6e6"><rect style="fill:#e6e6e6;stroke-width:.396341" id="rect622" width="79.125" height="3.375" x="-351.737" y="442.825"/><rect id="rect622-3" width="59.438" height="3.375" x="-351.727" y="454.313" style="fill:#e6e6e6;stroke-width:.343512"/><rect style="fill:#e6e6e6;stroke-width:.225" id="rect622-3-9" width="25.5" height="3.375" x="-287.906" y="454.266"/><rect id="rect622-3-9-4" width="19.688" height="3.375" x="-301.737" y="465.806" style="fill:#e6e6e6;stroke-width:.1977"/><rect style="fill:#e6e6e6;stroke-width:.303222" id="rect622-3-9-4-8" width="46.313" height="3.375" x="-351.737" y="465.825"/><rect id="rect622-3-9-4-8-3" width="59.063" height="3.375" x="-351.766" y="476.813" style="fill:#e6e6e6;stroke-width:.342427"/><rect style="fill:#e6e6e6;stroke-width:.204184" id="rect622-3-9-4-8-3-7" width="21" height="3.375" x="-351.938" y="487.726"/></g><text id="text716" x="91.795" y="199.222" xml:space="preserve" style="font-size:28px;line-height:1.25;font-family:'Cascadia Code PL';-inkscape-font-specification:'Cascadia Code PL';fill:#e6e6e6;stroke-width:.75"><tspan style="font-size:28px;fill:#e6e6e6;stroke-width:.75" id="tspan714" x="91.795" y="199.222">{</tspan></text><text id="text745" x="92.387" y="286.264" xml:space="preserve" style="font-size:30px;line-height:1.25;font-family:'Cascadia Code PL';-inkscape-font-specification:'Cascadia Code PL';fill:#e6e6e6;stroke-width:.75"><tspan style="fill:#e6e6e6;stroke-width:.75" id="tspan743" x="92.387" y="286.264">}</tspan></text></g><path style="fill:none;stroke:#ececec;stroke-width:3.49875;stroke-linecap:butt;stroke-linejoin:miter;stroke-miterlimit:4;stroke-dasharray:none;stroke-dashoffset:0;stroke-opacity:1;marker-start:url(#TriangleInM)" id="path2269" d="m 173.32008,385.12703 c -23.61381,-0.35778 -40.68204,5.29465 -53.92692,-16.58933 -6.29811,-10.40612 -2.39776,-29.21987 -3.19003,-55.86256"/></g></g></g><text id="text620" x="523.133" y="390.439" xml:space="preserve" style="font-size:200px;line-height:1.25;font-family:'Cascadia Code PL';-inkscape-font-specification:'Cascadia Code PL';fill:#3f51b5;fill-opacity:1;stroke-width:.75"><tspan style="font-style:normal;font-variant:normal;font-weight:700;font-stretch:normal;font-size:200px;font-family:Bahnschrift;-inkscape-font-specification:'Bahnschrift Bold';fill:#3f51b5;fill-opacity:1;stroke-width:.75" id="tspan618" x="523.133" y="390.439">Compiler</tspan></text><g id="g123" transform="translate(-1.5,-24.75965)"><g id="g112"><polygon style="fill:#3f51b5;fill-opacity:1" id="polygon14" points="268.34 60.41 268.34 74.18 305.66 74.18 305.66 178.31 319.43 178.31 319.43 74.18 356.75 74.18 356.75 60.41" class="cls-1" transform="matrix(1.1241934,0,0,1.1241934,235.66235,20.997152)"/><path style="fill:#3f51b5;fill-opacity:1;stroke-width:1.12419" id="path16" d="m 728.18274,221.45209 h 17.17767 C 731.43166,192.9313 696.06453,114.88979 696.06453,88.909678 h -16.21087 c 0,25.980112 -35.35588,104.021622 -49.28464,132.542412 h 17.16644 c 4.13703,-8.70126 11.39932,-24.27134 19.01011,-42.04484 h 42.42706 c 7.64451,17.7735 14.87308,33.34358 19.01011,42.04484 z m -54.96182,-57.52498 c 5.47482,-13.49032 10.72481,-27.34039 14.73818,-39.98756 4.01337,12.64717 9.27459,26.55345 14.74942,39.98756 z" class="cls-1"/><path style="fill:#3f51b5;fill-opacity:1;stroke-width:1.12419" id="path20" d="m 1043.6764,104.38982 c 23.0347,0 41.7863,22.7874 41.7863,50.79106 0,28.00366 -18.7516,50.79106 -41.7863,50.79106 -23.0347,0 -41.7863,-22.7874 -41.7863,-50.79106 0,-28.00366 18.7403,-50.79106 41.7863,-50.79106 m 0,-15.480139 c -31.6348,0 -57.26643,29.667459 -57.26643,66.327409 0,36.65995 25.63163,66.32742 57.26643,66.32742 31.6348,0 57.2664,-29.66747 57.2664,-66.27121 0,-36.60374 -25.6428,-66.2712 -57.2664,-66.2712 z" class="cls-1"/><path style="fill:#3f51b5;fill-opacity:1;stroke-width:1.12419" id="path22" d="m 796.63488,222.74491 a 40.740771,40.740771 0 0 1 -40.5609,-40.81947 h 15.48014 a 25.080756,25.080756 0 1 0 50.16151,0 25.699062,25.699062 0 0 0 -6.98124,-17.54866 c -4.49677,-4.72161 -10.11774,-7.07117 -18.94266,-7.86935 -10.11774,-0.89935 -17.93088,-4.40684 -23.77669,-10.71356 a 34.321626,34.321626 0 0 1 -8.99355,-23.05721 33.63587,33.63587 0 1 1 67.27174,0 H 814.7906 a 18.155725,18.155725 0 1 0 -36.31145,0 18.605402,18.605402 0 0 0 4.90149,12.53476 c 3.20395,3.46251 7.4534,5.26122 13.78261,5.81208 7.86935,0.70824 19.44855,2.788 28.79059,12.62469 a 41.347835,41.347835 0 0 1 11.24194,28.20601 40.740771,40.740771 0 0 1 -40.5609,40.83071 z" class="cls-1"/><path style="fill:#3f51b5;fill-opacity:1;stroke-width:1.12419" id="path24" d="m 963.73499,88.999614 v 0 -0.08994 h -15.52511 v 0.415952 c -0.4834,5.148806 -12.71463,18.537954 -35.16477,34.479014 C 888.09926,106.0986 878.34126,93.563839 877.88034,89.32563 v -0.415952 h -15.4689 v 0.08994 0 c 0,0.191112 0,0.382225 0,0.573338 V 221.45209 h 15.4689 V 115.11463 q 11.33187,11.14075 30.83662,24.54114 l 4.36188,2.93415 4.33938,-2.96788 q 19.49352,-13.33293 30.79166,-24.48493 v 106.31498 h 15.4689 V 89.572952 c 0.015,-0.168629 0.057,-0.370984 0.057,-0.573338 z" class="cls-1"/></g><g id="g4086" transform="matrix(0.39566365,0,0,0.39566365,1090.6788,-515.38705)" style="fill:#3f51b5;fill-opacity:1"><polygon style="fill:#3f51b5;fill-opacity:1" id="polygon8" points="205.07 124.8 214.81 115.07 129.62 29.87 44.42 115.07 54.16 124.8 129.62 49.35" class="cls-1" transform="matrix(0.75,0,0,0.75,-216.00519,1608.6362)"/><path style="fill:#3f51b5;fill-opacity:1;stroke-width:.75" id="path10" d="m -118.79769,1676.1362 a 39.45,39.45 0 0 0 -14.055,76.32 v -11.385 a 29.1,29.1 0 0 1 8.895,-54.1575 v 71.9175 h 10.3275 v -71.9175 a 29.1,29.1 0 0 1 8.895,54.1575 v 11.3475 a 39.45,39.45 0 0 0 -14.0625,-76.2825 z" class="cls-1"/></g></g></svg>