<svg xmlns="http://www.w3.org/2000/svg" xmlns:svg="http://www.w3.org/2000/svg" id="svg99" width="661.332" height="660.625" version="1.1" viewBox="0 0 174.978 174.79"><defs id="defs93"><marker style="overflow:visible" id="TriangleInM" orient="auto" refX="0" refY="0"><path style="fill:#ececec;fill-opacity:1;fill-rule:evenodd;stroke:#ececec;stroke-width:1pt;stroke-opacity:1" id="path1821" d="M 5.77,0 -2.88,5 V -5 Z" transform="scale(-0.4)"/></marker><marker style="overflow:visible" id="TriangleInM-0" orient="auto" refX="0" refY="0"><path style="fill:#ececec;fill-opacity:1;fill-rule:evenodd;stroke:#ececec;stroke-width:1pt;stroke-opacity:1" id="path1821-2" d="M 5.77,0 -2.88,5 V -5 Z" transform="scale(-0.4)"/></marker><marker id="TriangleInM-8" orient="auto" refX="0" refY="0" style="overflow:visible"><path id="path1821-5" d="M 5.77,0 -2.88,5 V -5 Z" transform="scale(-0.4)" style="fill:#ececec;fill-opacity:1;fill-rule:evenodd;stroke:#ececec;stroke-width:1pt;stroke-opacity:1"/></marker></defs><metadata id="metadata96"/><g style="display:inline" id="layer1" transform="translate(5.0686552,1.501203)"><g id="g397" transform="matrix(0.35277777,0,0,0.35277777,-5.0686552,-1.5012028)"><g id="g304"><g id="g273" transform="translate(416.03032,2.9336634)"><rect style="fill:#3f51b5;fill-opacity:1;fill-rule:evenodd;stroke-width:.92328" id="rect261" width="20.981" height="72.394" x="-329.532" y="3.765" ry="11.038" transform="rotate(-90)"/><rect id="rect263" width="20.981" height="72.394" x="-280.149" y="3.81" ry="11.038" transform="rotate(-90)" style="fill:#3f51b5;fill-opacity:1;fill-rule:evenodd;stroke-width:.92328"/><rect id="rect265" width="20.981" height="72.394" x="-230.765" y="3.825" ry="11.038" transform="rotate(-90)" style="fill:#3f51b5;fill-opacity:1;fill-rule:evenodd;stroke-width:.92328"/><rect id="rect267" width="20.981" height="72.394" x="-181.382" y="3.795" ry="11.038" transform="rotate(-90)" style="fill:#3f51b5;fill-opacity:1;fill-rule:evenodd;stroke-width:.92328"/><rect id="rect269" width="20.981" height="72.394" x="-378.915" y="3.75" ry="11.038" transform="rotate(-90)" style="fill:#3f51b5;fill-opacity:1;fill-rule:evenodd;stroke-width:.92328"/><rect id="rect271" width="20.981" height="72.394" x="-131.999" y="3.78" ry="11.038" transform="rotate(-90)" style="fill:#3f51b5;fill-opacity:1;fill-rule:evenodd;stroke-width:.92328"/></g><g id="g251" transform="translate(0,415.5)"><rect id="rect239" width="20.981" height="72.394" x="163.547" y="3.765" ry="11.038" style="fill:#3f51b5;fill-opacity:1;fill-rule:evenodd;stroke-width:.92328"/><rect style="fill:#3f51b5;fill-opacity:1;fill-rule:evenodd;stroke-width:.92328" id="rect241" width="20.981" height="72.394" x="212.93" y="3.797" ry="11.038"/><rect style="fill:#3f51b5;fill-opacity:1;fill-rule:evenodd;stroke-width:.92328" id="rect243" width="20.981" height="72.394" x="262.313" y="3.825" ry="11.038"/><rect style="fill:#3f51b5;fill-opacity:1;fill-rule:evenodd;stroke-width:.92328" id="rect245" width="20.981" height="72.394" x="311.696" y="3.774" ry="11.038"/><rect style="fill:#3f51b5;fill-opacity:1;fill-rule:evenodd;stroke-width:.92328" id="rect247" width="20.981" height="72.394" x="361.08" y="3.773" ry="11.038"/><rect style="fill:#3f51b5;fill-opacity:1;fill-rule:evenodd;stroke-width:.92328" id="rect249" width="20.981" height="72.394" x="114.164" y="3.75" ry="11.038"/></g><rect style="fill:#3f51b5;fill-opacity:1;stroke-width:.786126" id="rect108" width="367.5" height="367.5" x="64.353" y="64.15" ry="50.743"/><g id="g223"><rect style="fill:#3f51b5;fill-opacity:1;fill-rule:evenodd;stroke-width:.92328" id="rect144-07-1" width="20.981" height="72.394" x="163.547" y="3.765" ry="11.038"/><rect id="rect144-07-1-8" width="20.981" height="72.394" x="212.93" y="3.797" ry="11.038" style="fill:#3f51b5;fill-opacity:1;fill-rule:evenodd;stroke-width:.92328"/><rect id="rect144-07-1-7" width="20.981" height="72.394" x="262.313" y="3.825" ry="11.038" style="fill:#3f51b5;fill-opacity:1;fill-rule:evenodd;stroke-width:.92328"/><rect id="rect144-07-1-9" width="20.981" height="72.394" x="311.696" y="3.774" ry="11.038" style="fill:#3f51b5;fill-opacity:1;fill-rule:evenodd;stroke-width:.92328"/><rect id="rect144-07-1-2" width="20.981" height="72.394" x="361.08" y="3.773" ry="11.038" style="fill:#3f51b5;fill-opacity:1;fill-rule:evenodd;stroke-width:.92328"/><rect id="rect144-07-1-5" width="20.981" height="72.394" x="114.164" y="3.75" ry="11.038" style="fill:#3f51b5;fill-opacity:1;fill-rule:evenodd;stroke-width:.92328"/></g><g id="g259" transform="translate(0,2.9336634)"><rect id="rect144-07-1-93" width="20.981" height="72.394" x="-329.532" y="3.765" ry="11.038" transform="rotate(-90)" style="fill:#3f51b5;fill-opacity:1;fill-rule:evenodd;stroke-width:.92328"/><rect style="fill:#3f51b5;fill-opacity:1;fill-rule:evenodd;stroke-width:.92328" id="rect144-07-1-8-7" width="20.981" height="72.394" x="-280.149" y="3.81" ry="11.038" transform="rotate(-90)"/><rect style="fill:#3f51b5;fill-opacity:1;fill-rule:evenodd;stroke-width:.92328" id="rect144-07-1-7-3" width="20.981" height="72.394" x="-230.765" y="3.825" ry="11.038" transform="rotate(-90)"/><rect style="fill:#3f51b5;fill-opacity:1;fill-rule:evenodd;stroke-width:.92328" id="rect144-07-1-9-0" width="20.981" height="72.394" x="-181.382" y="3.795" ry="11.038" transform="rotate(-90)"/><rect style="fill:#3f51b5;fill-opacity:1;fill-rule:evenodd;stroke-width:.92328" id="rect144-07-1-5-1" width="20.981" height="72.394" x="-378.915" y="3.75" ry="11.038" transform="rotate(-90)"/><rect style="fill:#3f51b5;fill-opacity:1;fill-rule:evenodd;stroke-width:.92328" id="rect144-07-1-2-4" width="20.981" height="72.394" x="-131.999" y="3.78" ry="11.038" transform="rotate(-90)"/></g></g><g id="g228" transform="translate(-8.3408601,-41.498588)"><g id="g4226"><ellipse id="path521" cx="369.153" cy="173.733" rx="33.563" ry="33.75" style="fill:#ececec;stroke-width:.731655"/><g style="fill:#3f51b5;fill-opacity:1" id="g524" transform="translate(673.74534,-47.17933)"><ellipse style="fill:#3f51b5;fill-opacity:1;stroke-width:.468805" id="path519" cx="-304.592" cy="220.913" rx="11.988" ry="11.458"/></g></g><text style="font-size:30px;line-height:1.25;font-family:'Cascadia Code PL';-inkscape-font-specification:'Cascadia Code PL';fill:#e6e6e6;stroke-width:.75" id="text571" x="196.745" y="351.821" xml:space="preserve"><tspan id="tspan569" x="196.745" y="351.821" style="fill:#e6e6e6;stroke-width:.75">0101110</tspan><tspan style="fill:#e6e6e6;stroke-width:.75" id="tspan573" x="196.745" y="389.321">0111010</tspan><tspan style="fill:#e6e6e6;stroke-width:.75" id="tspan575" x="196.745" y="426.821">0101110</tspan></text><g id="g115"><g id="g741" transform="matrix(1.2195727,0,0,1,534.27119,-234.67933)" style="fill:#e6e6e6"><rect style="fill:#e6e6e6;stroke-width:.396341" id="rect622" width="79.125" height="3.375" x="-351.737" y="442.825"/><rect id="rect622-3" width="59.438" height="3.375" x="-351.727" y="454.313" style="fill:#e6e6e6;stroke-width:.343512"/><rect style="fill:#e6e6e6;stroke-width:.225" id="rect622-3-9" width="25.5" height="3.375" x="-287.906" y="454.266"/><rect id="rect622-3-9-4" width="19.688" height="3.375" x="-301.737" y="465.806" style="fill:#e6e6e6;stroke-width:.1977"/><rect style="fill:#e6e6e6;stroke-width:.303222" id="rect622-3-9-4-8" width="46.313" height="3.375" x="-351.737" y="465.825"/><rect id="rect622-3-9-4-8-3" width="59.063" height="3.375" x="-351.766" y="476.813" style="fill:#e6e6e6;stroke-width:.342427"/><rect style="fill:#e6e6e6;stroke-width:.204184" id="rect622-3-9-4-8-3-7" width="21" height="3.375" x="-351.938" y="487.726"/></g><text id="text716" x="91.795" y="199.222" xml:space="preserve" style="font-size:28px;line-height:1.25;font-family:'Cascadia Code PL';-inkscape-font-specification:'Cascadia Code PL';fill:#e6e6e6;stroke-width:.75"><tspan style="font-size:28px;fill:#e6e6e6;stroke-width:.75" id="tspan714" x="91.795" y="199.222">{</tspan></text><text id="text745" x="92.387" y="286.264" xml:space="preserve" style="font-size:30px;line-height:1.25;font-family:'Cascadia Code PL';-inkscape-font-specification:'Cascadia Code PL';fill:#e6e6e6;stroke-width:.75"><tspan style="fill:#e6e6e6;stroke-width:.75" id="tspan743" x="92.387" y="286.264">}</tspan></text></g><path style="fill:none;stroke:#ececec;stroke-width:3.49875;stroke-linecap:butt;stroke-linejoin:miter;stroke-miterlimit:4;stroke-dasharray:none;stroke-dashoffset:0;stroke-opacity:1;marker-start:url(#TriangleInM-8)" id="path2269" d="m 173.32008,385.12703 c -23.61381,-0.35778 -40.68204,5.29465 -53.92692,-16.58933 -6.29811,-10.40612 -2.39776,-29.21987 -3.19003,-55.86256"/></g></g></g></svg>